<?xml version="1.0" encoding="utf-8"?>
<!-- Generator: Adobe Illustrator 21.1.0, SVG Export Plug-In . SVG Version: 6.00 Build 0)  -->
<svg version="1.1" id="Layer_1" xmlns="http://www.w3.org/2000/svg" xmlns:xlink="http://www.w3.org/1999/xlink" x="0px" y="0px"
	 viewBox="0 0 800 600" style="enable-background:new 0 0 800 600;" xml:space="preserve">
<style type="text/css">
	.st0{fill:#CCCCCC;stroke:#CCCCCC;stroke-miterlimit:1;}
	.st1{fill:#FFFFFF;stroke:#000000;stroke-miterlimit:1;}
	.st2{fill:#FFFFFF;stroke:#000000;stroke-miterlimit:1;}
	.st3{font-family:'ArialMT';}
	.st4{font-size:12px;}
</style>
<g id="Outer_areas">
	<path class="st0" d="M411.3,207.4c-6.9-2.1-13.8-4.3-20.7-6.3c-4.7-1.3-9.1-3.3-12.5-6.6c-4.3-4.2-10-5.2-15.6-6.2
		c-3.7-0.7-6.7-2-9.4-4.6c-3.9-3.8-8.3-7-14.3-7.6c-5.9-0.7-10.7-3.4-13.9-8.2c-1.5-2.2-3.7-3.4-6.5-4.1c-3.7-0.9-7.3-2.3-11-3.5
		c-0.8-0.2-1.4-0.6-1.9-1.3c-0.3-0.4-0.7-0.8-1-1.3c-3.5-6.6-9.9-9.4-16.9-11.4c-2.1-0.6-3.9-1.6-4.9-3.6
		c-2.5-5.3-6.7-8.9-12.6-10.5c-5.8-1.6-9-5.2-10.8-10.4c-0.7-1.9-2-3.2-4.1-4c-3.7-1.5-7-3.8-10.7-5.3c-0.4-0.1-0.8-0.3-1-0.6
		c-1.9-3.8-4.9-7.3-5.2-11.8c0-0.2,0-0.5,0-0.7c-1.5-7.3,2.3-12.5,7.7-17c0.8-0.7,1.5-1.6,2.1-2.4c8-10.4,18.9-17.8,30-24.9
		c3.7-2.4,7.5-4.7,11.4-6.8c15.3-8.4,31.5-14.6,48.7-18.2c7.9-1.6,15.9-2.6,24-2.8c2.2,0,3.3,0.5,2.9,2.7c-0.4,2.4,0.8,2.8,3.1,2.8
		c26-0.1,52.1,0,78.1,0c1.1,0,2.2,0,3.3,0.1c0.6,0.5,1,1.1,1.1,1.9c0.1,4.3,0.4,8.5-0.1,12.8c-0.5,5.2-0.1,10.4-0.2,15.6
		c0,6.8,0,13.7,0,20.5c-0.8,5.7-0.4,11.4-0.4,17.1c0,2.1,1.9,3.9,4.2,4c1.1,0.1,2.2,0.1,3.3,0.1c20.4,0,40.8,0,61.2,0
		c1.2,0,2.4-0.3,3.4,0.5c0.5,0.6,0.5,1.4,0.5,2.1c0,8.8,0,17.7,0,26.5c0,0.7,0,1.3-0.3,2c-0.7,0.7-1.6,0.6-2.4,0.6
		c-2.8,0-5.7,0-8.5,0c-27.5,0.7-55,0.4-82.5,0.4c-2.4,0-4.7,0.6-7,0.9c-1.5,0.2-2.1,1.4-2.5,2.7c-0.9,2.7-0.7,5.6-1,8.4
		c-0.5,5.2-0.9,10.5-1.4,15.7c-0.7,7-1,14.1-2.1,21.1c-1,6.4-1.2,12.9-2.3,19.4C412.4,206.3,412.3,207.1,411.3,207.4z"/>
	<polygon class="st0" points="450.5,0 450.5,49.5 586.8,49.5 586.8,73.6 611,73.6 611,82.1 594.5,82.1 594.5,131.6 611,131.6 
		636.3,131.6 636.3,200.4 656,200.4 656,251.1 636.3,251.1 636.3,275.3 672.5,275.3 672.5,324.7 703.3,324.7 703.3,342.2 
		703.3,342.8 703.3,342.9 676.9,342.9 676.9,352.5 703.3,352.5 736.3,352.5 736.3,49.5 736.3,0 	"/>
	<polygon class="st0" points="473.6,411.7 473.6,353.7 438.5,353.7 438.5,327.2 336.3,327.2 336.3,411.7 336.3,600 474.7,600 
		474.7,411.7 	"/>
	<polygon class="st0" points="224.2,173.8 224.2,156.9 175.8,156.9 175.8,137.6 135.2,137.6 135.2,179.9 175.8,179.9 175.8,193.2 
		186.8,193.2 186.8,276.5 257.1,276.5 257.1,173.8 	"/>
        <polygon class="st0" points="175.8,193.2 175.8,179.9 136.3,179.9 136.3,154.5 113.2,154.5 113.2,153.3 47.3,153.3 0,153.3 
		0,177.5 47.3,177.5 47.3,287.3 113.2,287.3 113.2,248.7 136.3,248.7 136.3,276.5 187.9,276.5 187.9,193.2 	"/>
        <rect class="st0" x="412.1" y="207.6" class="st1" width="135.2" height="95.4"/>
        <polygon class="st0" points="676.9,353.7 676.9,342.9 636.3,342.9 636.3,353.7 636.3,600 800,600 800,353.7 	"/>
</g>
<g id="Inner_area">
	<polygon id="1010110001" class="st1" points="594.5,130.4 594.5,103.8 594.5,82.1 611,82.1 611,73.6 585.7,73.6 585.7,50.7 450.5,50.7 450.5,103.8 
		520.9,103.8 520.9,136.4 511,136.4 511,156.9 637.4,156.9 637.4,136.4 637.4,130.4 	"/>
	<polygon id="1010110021" class="st1" points="673.6,323.5 673.6,275.3 636.3,275.3 636.3,251.1 657.1,251.1 657.1,200.4 636.3,200.4 636.3,156.9 
		547.3,156.9 547.3,303 335.2,303 335.2,327.2 438.5,327.2 438.5,353.7 636.3,353.7 636.3,342.9 673.6,342.9 705.5,342.9 
		705.5,323.5 	"/>
	<rect id="1010110040" x="474.7" y="353.7" class="st1" width="161.5" height="246.3"/>
	<text transform="matrix(1 0 0 1 479.6998 485.8504)" class="st3 st4">Near CSR and Towards MRT</text>
	<text transform="matrix(1 0 0 1 572 229)" class="st3 st4">Near Atm</text>
	<text transform="matrix(1 0 0 1 479.7 83)" class="st3 st4">Near Lift Lobby</text>
</g>
</svg>
