<?xml version="1.0" encoding="utf-8"?>
<!-- Generator: Adobe Illustrator 21.1.0, SVG Export Plug-In . SVG Version: 6.00 Build 0)  -->
<svg version="1.1" xmlns="http://www.w3.org/2000/svg" xmlns:xlink="http://www.w3.org/1999/xlink" x="0px" y="0px"
	 viewBox="0 0 800 600" style="enable-background:new 0 0 800 600;" xml:space="preserve">
<style type="text/css">
	.st6{fill:#CCCCCC;}
	.st140{fill:#FFFFFF;stroke:#000000;stroke-miterlimit:10;}
	.st141{fill:#FFFFFF;stroke:#000000;stroke-miterlimit:10;}
	.st142{font-family:'MyriadPro-Regular';}
	.st143{font-size:17.6103px;}
</style>
<g id="Outer">
	<path class="st6" d="M799.9,121.8c-0.8,0-1.7,0-2.6,0c-15,0-29.9,0-44.9,0c-0.7,0-1.4,0.1-2.1,0V0H634.8v1.5h-55.2h-42.9H21.5v61.6
		v13.2v42.9c-0.1,0-0.3,0-0.4,0c-5.6,0.1-11.1,0-16.7,0c-5.1,0-5.2-0.9-3.2,5.3c6.2,18.8,12.3,37.7,18.5,56.5
		c0.4,0.5,0.9,0.7,1.3,0.7c-0.5,0.2-0.8,0.7-0.6,1.6c1.3,4,1.3,4-2.3,5c-3.3,0.9-6.6,1.9-9.9,2.7c-2.1,0.6-2.6,1.7-1.8,4.3
		c11.5,37.1,22.8,74.2,34.3,111.3c1.7,5.6,2.9,11.1,2.6,17.2c-0.2,4.1,0,8.3,0,12.5c0,4.1,0,4.1,3.6,4.1c8.3,0,16.7,0.1,25,0
		c1.9,0,2.6,0.8,2.5,3c-0.1,9.2-0.1,18.5-0.1,27.7c0,1.3-0.2,2.5-1,3.5c-0.2,0.4-0.3,0.8-0.4,1.1c0-0.6-0.2-1.1-0.6-1.6
		c-0.9,0-1.8,0.1-2.8,0.1c-12.1,0-24.2,0-36.3,0c-5.6,0-10.4,4.1-12.4,10.6C14.3,405.8,7.9,426.9,1.4,448c-1,3.3-0.9,3.3,1.9,3.4
		c19.2,0.2,38.4-0.4,57.6,0.3c0.3,7.8,0.2,15.6,2.9,23.1c3.4,9.6,7.7,18.5,13.3,26.6c10.4,15.1,22.4,28.4,35.3,40.5
		c27.4,25.7,58.8,42.1,91.8,54.8c10.1,3.9,20.5,4.1,30.8,1.9c8.4-1.8,16.7-4.6,25.2-5.3c0.7-0.1,1.3-0.5,1.9-1
		c3.1-3.1,6.2-6.3,9.3-9.4c0.8-1.4,1.1-2.9,1.1-4.6c0-2.4,0-4.7,0-7.1c0-5,0.7-5.9,5-5.9c8.2,0,16.3,0,24.5,0c1.8,0,3.5-0.2,5-1.3
		c2.6-2.8,5.2-5.6,7.7-8.5c1.3-1.5,2.8-2.5,4.5-3.1c5.9-2,11.8-4.2,17.7-6.1c1.5-0.5,2.6-1.4,3.6-2.7c3.2-4.3,6.4-8.5,9.7-12.8
		c0.7-0.9,1.5-1.7,2.6-2.1c6.5-2.6,12.9-5.3,19.4-7.9c1.3-0.5,2.3-1.4,3.1-2.7c3.2-5,6.5-9.9,9.7-14.9c0.8-1.3,1.8-2.1,3.1-2.7
		c5.8-2.7,11.6-5.4,17.4-8.1c1.6-0.7,2.7-1.8,3.6-3.6c2.2-4.5,4.6-9,6.9-13.5c0.8-1.6,1.9-2.7,3.3-3.6c5.8-3.3,11.5-6.7,17.2-10
		c1.5-0.8,2.5-2,3.2-3.7c1.9-4.5,4-9,6-13.5c0.6-1.4,1.5-2.5,2.6-3.3c5.7-3.9,11.3-7.8,16.9-11.7c0.9-0.6,1.7-1.2,2.1-2.4
		c1.5-3.9,3.1-7.7,3.8-11.8h0.1v-0.8c0.2-1.9,0.3-3.8,0-5.8v-24.2h-7.2V258.3h202.4v-20.5h1v-22h-1v-16.1h1.4c1,0.3,1.9,0.2,2.9,0.2
		c12.6,0,25.3-0.3,37.9,0.1c7.4,0.3,13.4-2.6,18.9-7.9c23.9-22.9,47.8-45.8,71.7-68.7C799.6,123.1,800.2,122.8,799.9,121.8z"/>
</g>
<g id="inner">
	<path id="SMUSISL2LiftLobby" class="st140" d="M326.6,182.7v38.2H191.7v11.7h-16.4v1.5h-45v64.6h1v82.2H114v22h-8.2v19.1h25.6v22h76.7v-61.6h105.3v-67.5
		h50.1v-16.1v-30.8v-85.1H326.6z M208.1,298.6h-32.7v-30.8h129.8v30.8H208.1z"/>
	<polygon id="SMUSISL1FilteringArea" class="st141" points="559.7,232.6 535.2,232.6 422.7,232.6 407.4,232.6 407.4,313.3 379.8,313.3 379.8,329.5 407.4,329.5 
		408.4,329.5 422.7,329.5 422.7,366.1 379.8,366.1 379.8,379.4 343,379.4 343,367.6 314.4,367.6 314.4,402.8 343,402.8 343,401.4 
		379.8,401.4 422.7,401.4 535.2,401.4 559.7,401.4 559.7,399.9 667,322.1 667,232.6 	"/>
	<polygon id="SMUSISL1NearSubway" class="st141" points="638.4,121.1 638.4,134.3 539.3,134.3 539.3,75.6 363.4,75.6 363.4,222.3 538.2,222.3 539.3,222.3 
		638.4,222.3 667,222.3 667,121.1 	"/>
	<text transform="matrix(0.6965 0 0 1 173.8237 347.0693)" class="st142 st143">Reception And Lobby</text>
	<text transform="matrix(0.6965 0 0 1 404.3281 148.9541)" class="st142 st143">Near Subway</text>
	<text transform="matrix(0.6965 0 0 1 490.7041 318.4531)" class="st142 st143">Filtering Area</text>
</g>
</svg>
