<?xml version="1.0" encoding="utf-8"?>
<!-- Generator: Adobe Illustrator 21.1.0, SVG Export Plug-In . SVG Version: 6.00 Build 0)  -->
<svg version="1.1" xmlns="http://www.w3.org/2000/svg" xmlns:xlink="http://www.w3.org/1999/xlink" x="0px" y="0px"
	 viewBox="0 0 800 600" style="enable-background:new 0 0 800 600;" xml:space="preserve">
<style type="text/css">
	.st0{fill:#CCCCCC;stroke:#CCCCCC;stroke-miterlimit:10;}
	.st1{fill: #FFFFFF;stroke:#000000;stroke-miterlimit:10;}
	.st2{font-family:'MyriadPro-Regular';}
	.st3{font-size:12px;}
</style>
<g id="Outer">
	<g>
		<path class="st0" d="M797.3,94c-11.2,0-22.4,0.1-33.6,0c-10.7-0.1-21.5,0.3-32.2-0.3c-15.4-0.1-30.7,0-46.1,0
			c-2.5,0-2.9,0.5-2.8,3.8c0,12.2,0,24.5,0,36.7c0,4.2-0.7,5.2-3.9,5.5c-1,0.1-2,0.1-3,0.1c-6.2,0-12.3,0-18.5,0
			c-3,0-3.2,0.3-3.2,4.1c0,6.1,0,12.1,0,18.2h-7.6v26.9h35.9v-9.8c1.2-0.1,2.5-0.3,3.7-0.3c14-0.1,27.9,0,41.9,0
			c1.4,0,2.8,0.1,4.2-0.3c5-1.4,9.4-4.7,13.4-8.6c16.7-16.2,33.1-32.8,49.7-49.1c1.9-1.8,4.1-3.3,4.9-6.6c0-6.4,0-12.7,0-19.1
			C799.3,94,798.3,94,797.3,94z"/>
		<rect x="378.3" y="236.8" class="st0" width="45.5" height="60.4"/>
		<path class="st0" d="M486.7,354.6c-5.1-6.6-11.5-10.6-18-14.1c-23.9-12.9-49-18.7-74.6-20.4c-5.5-0.4-11.1-0.3-16.6-1.3
			c-1.1-1.6-2.5-1.1-3.6-0.7c-1.1,0.5-0.8,2.3-0.8,3.5c0,11.5,0,22.9,0,34.4c0,3.2,0.1,6.4-1,9.3c-0.6,2.1-1.9,1.4-3,1.4
			c-14.4,0-28.7,0-43.1,0V215.5c7,0,14,0,21,0c3.1,0,3.2-0.1,3.2-4.1c0-15.1,0-30.1,0-45.2c0-4.1-0.1-4.2-3.1-4.2
			c-29.9,0-59.7,0-89.6,0c-0.7,0-1.3,0-1.7,0.1H143.1c0-11.1,0-22.1,0-33.2c0-1.1,0.1-2.3-0.7-3.1c-11.2,0-22.4,0.1-33.6-0.1
			c-0.7,0-1.3,0.1-1.7,0.3h-2c0-7.4,0-14.8,0-22.2c0-0.9,0.2-1.9-0.3-2.7c-16.7,0.7-33.4-0.8-50.1,0.9c-9.6,1-19.3,0.1-28.9,0.3
			c-2.1,0-3.3-0.7-2.9-3.8c0.3-2.9-0.7-3.7-2.8-3.6c-5.9,0.1-11.7,0-17.6,0c-2.9,0-3,0.2-1.8,3.8c3.5,10.9,7,21.8,10.5,32.8
			c3.7,11.8,7.5,23.6,11.2,35.4c0.7,2.7,2.3,3.4,4.2,3.4c14.9,0,29.7,0,44.6,0V251c-2.1,0.5-4.3,0.9-6.4,1.3
			c-5.8,1.1-11.6,2.8-17.4,4c-4.6,0.9-9.2,2-13.7,3.4c-1.2,0.4-2.1,0.9-1.6,2.9c4,13.5,8.1,27.1,12.1,40.6c0.4,1,0.2,2,0.2,3
			c0,6.6,0,13.3,0,19.9c0,3.4,0,3.4,2.5,3.5c7.3,0,14.6,0,22,0c0.9,0,1.7,0,2.3-0.1v35.7c-12.9,0-25.7-0.2-38.5,0.1
			c-5.1,0.1-9.3,3.2-11.5,10c-6.5,20.4-13.1,40.7-19.6,61.1c-1.1,3.5-1,3.9,1.8,3.9c9.5,0,19,0,30.6,0c8.9,0.5,19.8-0.2,30.8,0.5
			c-0.3,0.3-0.5,0.8-0.5,1.8c0.3,6.1-0.2,12.3,1.1,18.3c3.4,15.2,10.1,27.8,18.1,39.2c18.9,26.6,40.9,47.7,65.3,64.4
			c19.7,13.5,40.5,23.2,61.6,31.8c10.5,4.3,21.3,4.5,32,2c8.4-2,16.6-4.7,25.1-5.5c1.2-0.1,2.2-1,3.1-2c4.3-4.4,8.7-8.8,13-13.4
			c1.4-1.5,3-2.4,4.8-2.9c6.5-1.7,13-3.4,19.5-5.2c1.4-0.4,2.6-1.1,3.7-2.4c3.8-4.5,7.7-8.9,11.5-13.4c1.6-2,3.4-3.3,5.6-4
			c5.8-1.9,11.6-4.2,17.4-6.2c1.7-0.6,3.1-1.7,4.3-3.4c2.9-4.2,6-8.3,9-12.4c1.1-1.6,2.5-2.6,4.1-3.2c6.3-2.6,12.6-5.4,19-8.1
			c1.4-0.6,2.4-1.6,3.4-3.1c3.2-5.1,6.5-10.2,9.6-15.3c0.9-1.5,2-2.4,3.4-3.1c5.8-2.7,11.6-5.6,17.4-8.3c1.7-0.8,3-2,3.9-4
			c1.8-3.8,3.8-7.5,5.5-11.3c1.7-3.6,3.7-6.3,6.8-7.8c2.4-1.1,4.8-2.4,6.9-4.4c-0.6-2.3-0.2-3.7,1.9-3.6c0.8,0,1.4-0.6,1.9-1.3
			c0.5,0.6,0.4,2.4,1.5,1.8c2.5-1.3,5.2-2,6.6-5.6c1.9-4.7,4-9.2,5.9-13.9c0.7-1.7,1.6-2.9,2.9-3.8c5.6-4,11.2-8.1,16.9-12.1
			c1.4-1,2.5-2.3,3.1-4.3c1.7-6,4.1-11.4,7.4-16.1c1.3-1.9,2.4-4.3,3.3-6.6C497,379,495.6,366.2,486.7,354.6z"/>
	</g>
	<rect x="216" y="83" class="st0" width="72" height="27"/>
	<rect x="521.5" y="84.5" class="st0" width="56" height="34"/>
</g>
<g id="Inner">
	<path id="SMUSISL2LiftLobby" class="st1" d="M372.4,215.8h-60.2h-2.1h-98.3v-13.4h-19v13.4h-16.9h-29.6v189.7h29.6v-85.6h61.3v18.5h22.2v-18.5h50.7v47
		h62.4v-48.7h6.3V215.8H372.4z M175.8,284.6V251h134.2v33.6H175.8z"/>
	<path id="SMUSISL2StudyArea1" class="st1" d="M265.7,113.4V105h-6.3V83.2h-30.7V105h-8.5v8.4h-44.4h-31.7v55.4H95.5v-1.7H22.6v0.6L5.9,171l15.9,58.4l0-0.2
		l9.2,31.4l63.5-15.4v32.8v40.3h-18v30.2h29.6v16.8h40.2v-5v-11.8v-1.7v-28.5v-1.7v-36.9v-63.8h29.6v-55.4h139.5v-47H265.7z
		 M94.4,244.7l-1.4-0.3h1.4V244.7z"/>
	<polygon id="SMUSISL2StudyArea2" class="st1" points="653.6,180.5 653.6,141.9 643,141.9 643,111.7 612.4,111.7 567.5,111.7 567.5,102.5 561.1,102.5 
		561.1,84 529.4,84 529.4,102.5 522,102.5 522,111.7 350.2,111.7 350.2,121.8 315.4,121.8 315.4,160.4 350.2,160.4 350.2,217.5 
		612.4,217.5 643,217.5 653.6,217.5 682.1,217.5 682.1,180.5 	"/>
	<path id="SMUSISL2SR2n1" class="st1" d="M143.4,125.1c-11.1,0-22.2,0-33.4,0c-3.2,0-3.2,0-3.2-4.3c0-5.9,0-11.9,0.1-17.8c0.1-2.4-0.7-3-2.3-3
		c-6.3,0.1-12.7,0-19,0c-8.2,0-16.4-0.1-24.6,0.1c-2.4,0.1-3.3-1.1-3.5-4.1C56.4,69.8,63.5,49.1,80,34.4c5.4-4.8,11.3-8.4,17.5-11.1
		c1.6-0.7,2.6-1.3,1.3-3.7c-0.9-1.8,0.4-2,1.2-2.4c7.3-3.6,14.9-6,22.6-7.6c20.9-4.2,41.4-1.9,61.4,7.1c1.2,0.6,2.9,0.6,1.4,3.5
		c-0.8,1.5,0.7,1.9,1.5,2.3c4.7,2.3,9.1,5,13.3,8.6c14.4,12.2,23.7,29,26.5,51.6c0.1,1.2,0.6,2.1,0.9,3.1c0.4,0.6,0.5,1.3,0.5,2
		c0,4.1,0,8.2,0,12.3c0,2.2-0.6,3.6-2.6,3.6c-4.9,0-4.9,0.1-5.1,6.7c-0.1,3.3-0.1,3.4-2.6,3.4c-9.2,0-18.4,0.2-27.6-0.1
		c-14.4-0.5-28.7-0.1-43.1-0.2c-3.2,0-3.1,0-3.2,4.3c0,2.3,0.4,4.7-0.3,7C143.7,124.8,143.6,125,143.4,125.1z"/>
	<path id="SMUSISL2SR2n2" class="st1" d="M258.8,83.2c0.9-0.1,0.9-0.9,0.8-1.7c-0.7-8.3,1.6-15.6,4.8-22.4c5.5-11.7,11.7-22.7,20.8-29.9
		c9.7-7.7,20.4-12.1,31.3-15.5c0.8-0.3,1.7-0.5,2.5-0.7c0.7-0.2,1.2-0.7,0.9-1.7c-0.7-2.2,0.4-2.4,1.5-2.6
		c11.1-2.5,22.3-4.5,33.5-5.9C367.1,1,379.4,0.2,391.7,0c1.5,0.6,0.9,2.2,0.9,3.3c0,14.9-0.2,29.9,0.1,44.8
		c0.5,22.9,0.3,45.8,0.4,68.7c0,4.1,0,4.1-3,4.1c-12.2,0-24.4,0-36.5,0c-0.4,0-0.8,0-1.2,0c-2.1-0.5-4.2,0.1-6.3,0
		c-0.3,0-0.5,0-0.8,0c-8.8,0-17.6,0.2-26.3,0c-17.3-0.5-34.6-0.1-52-0.3c-0.8,0-1.5,0.1-2.3-0.3c-0.8-1-0.6-2.2-0.6-3.4
		c0-3.6,0-7.1,0-10.7c0-2.4-0.9-3.2-2.6-3.1c-3.3,0.3-3.4,0.2-3.4-4.1c0-4.2,0-8.4,0-12.5C258,85.3,257.9,84,258.8,83.2z"/>
	<path id="SMUSISL2SR2n3" class="st1" d="M527.4,81.5c1.2,6,0.7,12.1,0.9,18.2c0.1,2.9-0.6,4-2.9,3.9c-4.3-0.2-4-0.6-4,5.5c0,3.7,0,7.4,0,11
		c-0.7,1.9-2,1.2-3.1,1.2c-19.3,0-38.6,0-57.9,0c-1.7,0-3.4-0.1-5.1,0.1c-2.1,0.5-4.2,0.1-6.3-0.1c-17.7,0.4-35.5,0.3-53.3,0.3
		c-2.8,0-2.9-0.1-2.9-3.7c0.3-33.2-0.8-66.4-0.5-99.5c0-4.8,0-9.6,0-14.4c0-3.5,0.2-3.6,2.7-3.7c8.5-0.2,17.1,0.4,25.5,1.3
		c14.5,1.6,29,3.8,43.3,7.9c1.1,0.3,2.1,0.5,1.9,2.6c-0.1,1.1,0.8,1.1,1.3,1.3c1.9,0.7,3.9,1.3,5.8,2c12.8,4.6,24.6,11.9,35.3,22.2
		c0.9,0.8,1.6,1.9,2.4,2.8c6.3,7.2,11,15.9,13.9,26.2C526,71.4,526.7,76.4,527.4,81.5z"/>
	<path id="SMUSISL2SR2n4" class="st1" d="M731.8,96.6c-15.4,0-30.7,0.1-46.1,0.1c-3.9,0-3.9,0-3.9,5c0,12.5,0,25,0,37.5c0,2.5-0.5,3.7-2.6,3.7
		c-11.3-0.1-22.7,0-34,0c-0.6,0-1.2-0.1-1.8-0.2c-0.6-0.9-0.3-2-0.3-2.9c0-7.3,0-14.5,0-21.8c0-1,0.2-2-0.2-3
		c-1-0.8-2.1-0.4-3.2-0.4c-23.1,0-46.1,0-69.2,0c-1.1,0-2.2,0.3-3.2-0.3c-0.9-2.1-0.4-4.4-0.4-6.6c0-2-0.5-2.6-2-2.7
		c-4,0-4-0.1-4-5.4c0-3.4,0-6.7,0-10.1c0-1.1-0.2-2.3,0.6-3.1c0.7-1.9,0.3-4,0.5-6c1.6-16.3,7.8-29,17.2-39.3
		c6.5-7.2,13.9-12.6,21.6-17c1.4-0.8,2.5-1.4,0.6-3.3c-1.5-1.5-0.2-1.9,0.6-2.3c3.6-1.6,7.2-3.1,10.8-4.6c6.6-1.6,13.2-3.4,19.9-4.1
		c17.8-1.8,35.5-1.3,52.6,6.9c1.8,0.9,4.1,1.2,2.8,5.3c-0.5,1.6,1.1,1.7,1.9,2.1c8.2,4,16.1,9.1,22.8,16.8
		C725.4,55.5,732.6,73.7,731.8,96.6z"/>
	<text transform="matrix(1 0 0 1 129 66.3335)" class="st2 st3">SR 2-1</text>
	<text transform="matrix(1 0 0 1 310.3335 66.3335)" class="st2 st3">SR 2-2</text>
	<text transform="matrix(1 0 0 1 438.333 66.6665)" class="st2 st3">SR 2-3</text>
	<text transform="matrix(1 0 0 1 630.333 66.3335)" class="st2 st3">SR 2-4</text>
	<text transform="matrix(1 0 0 1 321.6665 278)" class="st2 st3">Lift Lobby</text>
	<text transform="matrix(1 0 0 1 63 210.5)" class="st2 st3">Study Area 1</text>
	<text transform="matrix(1 0 0 1 473 171)" class="st2 st3">Study Area 2</text>
</g>
</svg>
