<?xml version="1.0" encoding="utf-8"?>
<!-- Generator: Adobe Illustrator 21.1.0, SVG Export Plug-In . SVG Version: 6.00 Build 0)  -->
<svg version="1.1" id="Layer_1" xmlns="http://www.w3.org/2000/svg" xmlns:xlink="http://www.w3.org/1999/xlink" x="0px" y="0px"
	 viewBox="0 0 800 600" style="enable-background:new 0 0 800 600;" xml:space="preserve">
<style type="text/css">
	.st0{fill:#C7C7C7;}
	.st1{fill:#D2D2D2;}
	.st2{fill:#CCCCCC;stroke:#CCCCCC;stroke-miterlimit:10;}
	.st3{fill:#FFFFFF;stroke:#000000;stroke-miterlimit:10;}
	.st4{font-family:'ArialMT';}
	.st5{font-size:12px;}
</style>
<g id="Outer">
	<path class="st0" d="M74,357.8c0.1,3.3-0.7,4.3-3.2,4.3c-12.3-0.2-24.6-0.4-36.9,0.1c-5.5,0.2-10.4,3.5-12.7,10.7
		C14.3,394.4,7.6,416,0.8,437.5c-1.1,3.6-1.1,3.6,1.9,3.6c18.7,0,37.3,0.1,56-0.1c2.5,0,3.2,1.1,3.2,4.2c0,6.1-0.1,12.2,1.5,18.1
		c3,11.1,7.3,21.2,12.9,30.1c12.2,19.4,26.5,35.5,42,50c25.6,23.9,54.2,39.3,83.7,51.7c4.7,2,9.5,4,14.5,4.5c6,0.4,12.1,0.4,18.1,0
		c1.4-0.2,2.7-0.5,4-1.2l0,0c0.8-0.1,1.6-0.3,2.4-0.5c7.2-1.8,14.5-4.1,21.8-4.7c1.4-0.1,2.5-0.6,3.5-1.7c4.2-4.5,8.5-8.7,12.6-13.3
		c1.9-2.1,4-3.3,6.4-3.5c4.5-1.3,9-2.8,13.5-3.7c4.2-0.9,7.9-2.7,10.8-7.1c1.5-2.2,3.4-4,5.1-6c3.2-4.8,7.2-8,12-9.2
		c3-0.7,5.8-2.4,8.7-3c5.4-1.1,9.5-4.7,12.7-10.4c3.9-6.8,8.8-11.4,15.3-12.9c1-0.2,2-1,3-1.3c8.1-2,14.3-7.7,18.7-17
		c2.6-5.6,6.4-9,11.2-10.7c2.7-0.9,5.2-2.8,7.8-3.7c5.3-1.7,9-5.5,11.3-12.1c2.8-8,7.4-13,13.7-16c4.4-2.1,9.2-4.1,12.4-8.1
		c3.3-4.1,5-10.5,7.3-16c0.8-1.8,1.7-3,3.1-4c5.4-3.8,10.7-7.8,16.1-11.7c1.4-1,2.5-2.3,3.1-4.3c1.9-5.9,4-11.6,7.3-16.4
		c1.6-2.3,2.7-5.2,3.8-7.9c5.9-15.1,3.8-29.4-5.8-40.6c-3.7-4.3-8-7.6-12.4-10.4c-12.2-7.9-25.1-12.8-38.3-16.6
		c-16.2-4.6-32.6-7.3-49.2-7.4c-0.7,0.6-1.8-0.3-2.4,0.6c0,0,0,0,0-0.1c-1.7,0.2-3.5-0.6-4.9,1.4c-0.7,0.9-1.5,0.5-2.3,0.5
		c-9.6-0.4-19.2-0.2-28.8-0.1c-2.5,0-2.8,0.8-2.8,4.3c0,5.1-0.4,10.1-0.8,15.2c-0.4,0.6-0.9,0.7-1.5,1c-8.2,0.7-16.4,0.3-24.6,0.2
		c-2.3,0-3.3-1.6-3.4-4.8c-0.2-3.9,0-7.8-0.1-11.7c-0.1-5.6-0.4-6.1-4.7-6.1c-8.4-0.1-16.8,0-25.1,0c-1.7,0-3.4-0.1-5.1,0.2
		c-1.3,0.2-2.2,0.8-2.3,2.7c0.1,2.7,0,5.3,0.1,8c0.1,1.7-0.4,2.6-1.6,2.9c-3.9,1.2-7.9,0.5-11.9,0.6c-4.7,0.1-5.5-1-5.6-7.4
		c-0.1-6.6-0.3-6.9-5.4-6.9c-9-0.1-18.1,0-27.1,0c-13.4,0-26.9,0-40.3,0c-1.5,0-3.1-0.5-4.3,1.4c-0.1,0.4-0.1,0.8,0.1,1.2l0,0
		c0,18.5,0,37,0,55.5l-0.1,0.1c-0.1,0.4-0.1,0.8,0.1,1.2l0,0c0,10.6,0,21.3,0,31.9c0-0.1,0-0.2-0.1-0.3c-0.2-0.4-0.4-0.6-0.7-0.8
		c-0.6-0.3-1.2-0.4-1.9-0.5c-1.6-0.4-3.2-0.4-4.9-0.4c-5.3,0-10.6,0.1-15.9,0c-3.1-0.1-4.1-1.4-4.2-5.5c0-1.2,0-2.4,0-3.6
		c0-15.8,0-31.5,0-47.3 M142,362.3c0,4.3,0,4.3-3.3,4.3c-2.5,0-4.9,0-7.4,0c-2.6-0.2-5.1-0.3-7.7-0.3c-11.9,0.2-23.8-0.1-35.7,0.1
		c-3.8,0.1-7.4-1.4-11.2-1.2c-0.2,0-0.4,0-0.6-0.1c0-0.1,0-0.2,0-0.3c0.3-0.1,0.6-0.3,0.9-0.7c0.5-0.9,0.5-2,0.5-3.1 M171.4,461.3
		c0.1-0.1,0.3-0.2,0.4-0.4c0.2-0.5,0.2-0.9,0.3-1.4c0.1,0.5,0.2,1.1,0.4,1.6C172.1,461.1,171.8,461.2,171.4,461.3z M333.9,345.9
		c0.1,0.1,0.1,0.1,0.2,0.2l-0.1,0.1c-0.1,0.1-0.2,0.2-0.3,0.2C333.7,346.3,333.8,346.1,333.9,345.9z"/>
	<path class="st1" d="M265.3,106.2c-5.7,0-11.4,0.1-17.1,0.1c-10.9,0-21.8-0.1-32.7,0c-2.2,0-3.1-0.9-3-4c0.1-3,0-6.1,0-9.1
		c0-18.9,0.1-37.8,0.1-56.7c-0.8,1.3-0.6,2.9-0.6,4.4c0,12,0,24,0,36c0,1.5,0.1,3-0.4,4.5c0,7-0.2,13.9-0.1,20.9c0,2.9-0.6,4-2.9,4
		c-32.4-0.1-64.9,0-97.3,0c-0.9,0-1.8,0-2.7-0.1c-1-0.1-1.8-0.6-1.7-2.1c0.3-3.5-1.3-3.5-3.2-3.5c-13.7,0.1-27.4,0-41.1,0
		c-1.2,0-2.4-0.2-3.6-0.3c0.1,0.7,0.2,1.4,0.4,2.1l0,0c-10.6,0-21.1,0.1-31.7,0.1c-0.8,0-1.7,0.1-2-1.3c-0.3-4.5-0.3-4.5-3.6-4.5
		c-5.4,0-10.8,0.1-16.1,0c-2.2,0-2.6,0.9-1.7,3.5c1.4,4.3,2.7,8.6,4.1,12.9c5.5,17.6,10.9,35.1,16.4,52.7c0.2,0.4,0.3,0.9,0.5,1.3
		l0,0l0,0c-0.5,0.4-1,0.8-1.6,1.2c1.2,3.2,3.4,3.7,5.7,3.7c9.1,0.1,18.2,0,27.3,0c1.4,0,2.8-0.1,4.1,0.5c1.4,0.2,1.5,1.5,1.5,3
		c0,6.5,0,13,0,19.5c0,1.4-0.2,3,0.9,4.1c5,0.7,10.1,0.4,15.1,0.2c0.3-0.1,0.5-0.4,0.7-0.7c0-0.2,0.1-0.4,0-0.6
		c0.4,0.3,0.8,0.5,1.2,0.5c5.5,0,10.9,0,16.4,0c0.2,0,0.4,0,0.6-0.1c0,0.5,0,1.1,0,1.6c0,4.3-0.1,8.7,0,13c0,1.5-0.1,3.1,1.1,4.1
		c0.7,0.3,1.2,0,1.6-0.8c0.7-1.9,0.7-4,0.7-6.1c0-10.5,0-21.1,0-31.6c0-5.3,0.9-6.5,4.9-6.5c10.5,0,21,0,31.5,0
		c4.3,0,5.1,1.1,5.1,6.9c0,10.4,0,20.9,0,31.3c0,2.1,0,4.1,0.7,6.1c0.4,0.8,0.9,1,1.6,0.7c1.1-0.9,1-2.4,1-3.8
		c0.1-13.5,0.1-27,0-40.5c0-3.8-0.6-4.4-3.5-4.6c-1.4-0.1-2.8-0.1-4.2-0.1c-8.6,0-17.1,0-25.7,0c-3.3,0-4.2-1.2-4.2-5.7
		c0-16,0-32,0-48c0-4.5,0.9-5.6,4.2-5.8c1,0,2,0,2.9,0c12.8,0.1,25.7,0.4,38.5,0.4c20.8,0.1,41.6,0.4,62.5-0.3
		c14.9-0.5,29.8-0.1,44.8-0.1c1.5,0,3.1,0.5,4.4-1.2C265.6,106.9,265.5,106.6,265.3,106.2z"/>
	<rect x="209.9" y="41.5" class="st1" width="54.6" height="65"/>
	<rect x="368.4" y="236.6" class="st1" width="44.1" height="65"/>
	<rect x="506.9" y="38" class="st1" width="53.5" height="73.8"/>
	<path class="st2" d="M715.5,101.4c-1.3,4.2-1.3,4.2-4.9,4.2c-13.6,0-27.2,0-40.8,0c-3.3,0-3.3,0-3.3,4.5c0,5.8,0,11.5,0,17.3
		c0,3.6,0,3.6-2.7,3.6c-4.9,0-9.9,0-14.8,0v-19h-39v35h26.9c0,11.5,0,22.9,0,34.4c0,0.4,0,0.9,0,1.3c0,1.6,0.6,2.4,1.8,2.5
		c0.8,0.1,1.6,0,2.4,0.1c16.5,0.4,33-1.1,49.6-0.7c6.8,0.2,13.5,0,20.3,0c0.8,0,1.6,0.2,2.4-0.2c6-1.8,11.2-5.9,16-10.8
		c23-23.1,45.9-46.3,68.8-69.5c0.6-0.6,1.5-1,1.7-2.7C771.8,101.4,743.6,101.4,715.5,101.4z"/>
</g>
<g id="Inner">
	<polygon id="SMUSISL3StudyArea3" class="st3" points="637.6,183 637.6,130.2 629.2,130.2 629.2,116.2 626.1,116.2 626.1,109.2 
		532.7,109.2 532.7,107.4 432.9,107.4 432.9,149.6 532.7,149.6 532.7,183 532.7,219.9 667,219.9 667,183 	"/>
	<rect id="SMUSISL3CLSRM" x="325.9" y="149.6" class="st3" width="206.8" height="70.3"/>
	<polygon id="SMUSISL3StudyArea2" class="st3" points="325.9,107.4 105.5,107.4 105.5,163.6 325.9,163.6 325.9,149.6 432.9,149.6 
		432.9,107.4 	"/>
	<polygon id="SMUSISL3StudyArea1" class="st3" points="171,219.9 172.6,219.9 172.6,163.6 126.5,163.6 105.5,163.6 105.5,170.7 
		98.1,170.7 98.1,198.8 62.4,198.8 62.4,172.4 47.5,172.4 47.6,170.7 5,168.9 43.4,302.6 43.5,299.5 43.5,304.2 43.5,330.6 
		76.1,330.6 76.1,365.7 105.5,365.7 106.5,365.7 126.5,365.7 142.2,365.7 142.2,330.6 126.5,330.6 126.5,253.7 	"/>
	<path id="SMUSISL3LiftLobby" class="st3" d="M220.9,219.9v-14.1h-23.1v14.1h-27.3l-42.4,33.4h-1.6v77.3h15.7v79.1h29.4v-80.8v-7
		h8.4h8.4h58.8v12.3h22v-12.3h34.6v22.8h32.5v-22.8h32.5V285v-37v-28.1H220.9z M293.4,284.9H181v-21.1v-5.3V255v-7h112.3v36.9H293.4
		z"/>
	<polygon id="SMUSISL3SR3.1" fill="#000000" class="st3" points="118.2,3.5 105.7,3.5 59.2,3.5 59.2,100.4 105.7,100.4 105.7,107.3 210.1,107.3 
		210.1,3.5 	"/>
	<rect id="SMUSISL3SR3.2" x="264.5" y="3.5" class="st3" width="122.7" height="103.9"/>
	<rect id="SMUSISL3SR3.3" x="387.2" y="3.5" class="st3" width="122.7" height="103.9"/>
	<polygon id="SMUSISL3SR3.4" class="st3" points="667,102.2 667,3.5 560.4,3.5 560.4,109.8 626.1,109.8 626.1,112.3 649.7,112.3 
		649.7,130.8 665.7,130.8 665.7,112.3 666.5,112.3 666.5,109.8 667,109.8 667,106 713.5,106 713.5,102.2 	"/>
	<text transform="matrix(1 0 0 1 595.3336 54.1998)" class="st4 st5">SR 3-4</text>
	<text transform="matrix(1 0 0 1 400 188)" class="st4 st5">Class Rooms</text>
	<text transform="matrix(1 0 0 1 306.6665 269.3335)" class="st4 st5">Lift Lobby</text>
	<text transform="matrix(1 0 0 1 48.3335 269.3335)" class="st4 st5">Study Area 1</text>
	<text transform="matrix(1 0 0 1 204 140.6665)" class="st4 st5">Study Area 2</text>
	<text transform="matrix(1 0 0 1 555 187.6665)" class="st4 st5">Study Area 3</text>
	<text transform="matrix(1 0 0 1 113.3333 54.2)" class="st4 st5">SR 3-1</text>
	<text transform="matrix(1 0 0 1 306.6667 54.2001)" class="st4 st5">SR 3-2</text>
	<text transform="matrix(1 0 0 1 429.3002 54.2)" class="st4 st5">SR 3-3</text>
</g>
</svg>
