<?xml version="1.0" encoding="utf-8"?>
<!-- Generator: Adobe Illustrator 21.1.0, SVG Export Plug-In . SVG Version: 6.00 Build 0)  -->
<svg version="1.1" xmlns="http://www.w3.org/2000/svg" xmlns:xlink="http://www.w3.org/1999/xlink" x="0px" y="0px"
	 viewBox="0 0 800 600" style="enable-background:new 0 0 800 600;" xml:space="preserve">
<style type="text/css">
	.st0{fill:#CCCCCC;stroke:#CCCCCC;stroke-miterlimit:10;}
	.st1{fill:#FFFFFF;stroke:#000000;stroke-miterlimit:10;}
	.st2{font-family:'MyriadPro-Regular';}
	.st3{font-size:12px;}
</style>
<g id="Layer_1">
	<path class="st0" d="M797,120.4c-12.6,0-25.2,0-37.8,0c-3.4,0-6.7-0.1-10.1,0c-1.7,0-2.4-0.6-2.3-2.5c0.1-1.5,0-3,0-4.5
		c0-36.7,0-73.4,0-110c0-2.5-0.5-3.7-3-3.3c-0.3,0.1-0.7,0-1,0c-238,0-476.1,0-714.1,0c-3.8,0-3.8,0-3.8,4.1c0,36.9,0,73.9,0,110.8
		c0,2.6-0.5,3.6-3.1,3.5c-6.6-0.2-13.3,0-19.9-0.1c-1.9,0-2.6,0.4-1.7,2.5c0.9,2.5,1.7,5,2.5,7.5c6.1,18.6,12.1,37.2,18.2,55.7
		c0.7,2.1,0.6,3.2-1.7,3.7c-3.5,0.8-7,1.9-10.5,2.9c-3.1,0.9-3.1,0.9-2.1,4.2c9.8,32.1,19.6,64.2,29.4,96.4
		c2.4,7.9,5.5,15.7,7.1,23.8c1.6,8.2,0.4,16.8,0.5,25.2c0,2.4,0.7,3,2.8,3c8.4-0.1,16.9,0,25.3-0.1c2.3,0,2.9,0.8,2.9,3.2
		c-0.2,7.5-0.3,15.1-0.2,22.6c0,2.6-0.6,3.5-3.2,3.5c-12.1-0.1-24.2-0.1-36.3-0.1c-5.1,0-11.2,4.7-12.9,9.8
		C15.2,403.2,8.3,424,1.5,444.8c-1,3.1-1,3.1,2.1,3.1c18.2,0,36.5,0,54.7,0c3.6,0,3.6,0,3.9,4.1c0.3,4.9-0.2,9.8,0.9,14.6
		c2.8,12.1,7.8,23.2,14.6,33.2c11.5,17.1,25.1,32,40.1,45.5c25.2,22.8,54.2,37.9,84.6,50.3c12.8,5.2,25.6,5.6,38.8,2.1
		c4.5-1.2,9.1-2.9,13.7-3.1c7.3-0.4,12.8-3.8,17.4-9.6c4.9-6.2,10.9-10.3,18.6-11c0.5,0,0.9-0.3,1.4-0.5c0.4-0.4,0.7-0.8,0.7-1.2
		l30.4-8.1l9.2-15.8c1.8-0.6,3.6-1.2,5.4-1.7c2.6-0.7,4.5-2.2,6.1-4.5c2.6-3.8,5.6-7.4,8.3-11.2c1-1.3,2.1-2.1,3.6-2.7
		c6.2-2.5,12.4-5.2,18.6-7.7c1.3-0.5,2.2-1.3,3-2.6c3.2-5,6.5-10,9.7-15.1c0.8-1.2,1.7-2.1,3-2.6c5.9-2.7,11.7-5.5,17.6-8.2
		c1.4-0.6,2.3-1.5,3-2.9c2.3-4.6,4.7-9.1,7-13.8c0.9-1.8,2-3.1,3.7-4c5.6-3.2,11.1-6.5,16.7-9.7c1.5-0.9,2.6-2,3.3-3.7
		c1.9-4.4,3.9-8.8,5.8-13.2c0.7-1.7,1.8-2.9,3.2-3.9c5.4-3.7,10.7-7.5,16.1-11.2c1.3-0.9,2.2-2,2.7-3.6c1.9-5.8,4.1-11.4,7.6-16.3
		c2.2-3,3.5-6.6,4.7-10.2c4.5-13.9,2.1-26.2-7.6-36.7c-3.8-4.1-8.3-7.2-13-10c-20.4-12-42.6-17.5-65.3-20.7c-7.6-1.1-15.3-1-23-1.5
		c-1.8-0.1-2.5-0.6-2.4-2.6c0.2-2.8,0.2-5.7,0.4-8.5c0.2-3.8,0.2-3.8,3.8-3.8c11.3,0,22.6-0.1,33.9,0c2.3,0,2.9-0.7,2.9-3.2
		c-0.1-19-0.1-38,0-57c0-2.8-0.8-3.4-3.2-3.4c-11.4,0.1-22.7,0.1-34.1,0.1c-3.3,0-3.3,0-3.3-3.7c0-2.3,0-4.6,0-6.9
		c0-3.6,0-3.7,3.4-3.7c22.7,0,45.3,0,68-0.1c73-0.1,146-0.1,219-0.2c3.3,0,3.3,0,3.3-3.5c0-9.2-0.1-18.5-0.1-27.7
		c0-3.7,0-3.7,3.3-3.7c12.7,0,25.4-0.3,38,0c5.5,0.1,10.3-1.7,14.7-4.9c2.5-1.8,4.8-4,7.1-6.2c23.7-22.8,47.3-45.7,71-68.5
		c0.7-0.7,1.6-1.2,1.8-2.3C799,120.2,798,120.4,797,120.4z M265.2,235.1L265.2,235.1L265.2,235.1L265.2,235.1z M155.3,55
		C155.3,55,155.3,55,155.3,55C155.3,54.9,155.3,54.9,155.3,55C155.3,54.9,155.3,54.9,155.3,55C155.3,55,155.3,55,155.3,55
		C155.3,55,155.3,55,155.3,55z M106,178C106,178,106,178,106,178C106,178,106,178,106,178C106,178,106,178,106,178z M591.6,213.2
		C591.6,213.2,591.6,213.2,591.6,213.2C591.6,213.2,591.6,213.2,591.6,213.2C591.6,213.2,591.6,213.2,591.6,213.2z"/>
</g>
<g id="Layer_3">
	<polygon id="1010400001" class="st1" points="291.3,235.5 291.3,265 265.1,265 265.1,235.5 240,235.5 240,265 204.4,265 204.4,303.4 291.3,303.4 
		291.3,334.4 369.8,334.4 369.8,235.5 	"/>
	<polygon id="1010400027" class="st1" points="386.5,148.3 386.5,111.4 353,111.4 353,53.8 322.7,53.8 322.7,111.4 254.6,111.4 254.6,53.8 
		225.3,53.8 225.3,111.4 154.2,111.4 154.2,53.8 98.7,53.8 76.7,53.8 76.7,73 98.7,73 98.7,124.7 105,124.7 105,148.3 225.3,148.3 
		225.3,182.3 254.6,182.3 254.6,148.3 322.7,148.3 322.7,182.3 327.9,182.3 327.9,235.5 386.5,235.5 386.5,177.9 353,177.9 
		353,148.3 	"/>
	<polygon id="1010400013" class="st1" points="204.4,265 185.6,265 180.3,265 180.3,223.6 187.7,223.6 187.7,205.9 180.3,205.9 175.1,205.9 
		174,205.9 174,148.3 148.9,148.3 143.7,148.3 105,148.3 105,189.7 99.7,189.7 84,189.7 84,228.1 99.7,228.1 99.7,217.7 105,217.7 
		143.7,217.7 143.7,375.7 105,375.7 105,411.2 143.7,411.2 143.7,420 174,420 174,411.2 174,375.7 174,315.2 185.6,315.2 
		185.6,303.4 204.4,303.4 	"/>
	<polygon id="1010400054" class="st1" points="639.8,73 695.3,73 695.3,53.8 639.8,53.8 618.9,53.8 618.9,111.4 549.8,111.4 549.8,53.8 519.4,53.8 
		519.4,111.4 450.3,111.4 450.3,53.8 422.1,53.8 422.1,111.4 386.5,111.4 386.5,148.3 422.1,148.3 422.1,170.5 450.3,170.5 
		450.3,148.3 519.4,148.3 519.4,194.1 549.8,194.1 549.8,148.3 616.8,148.3 616.8,192.6 641.9,192.6 641.9,197.1 663.9,197.1 
		663.9,123.2 641.9,123.2 641.9,121.8 639.8,121.8 639.8,111.4 	"/>
	<text transform="matrix(1 0 0 1 299 290.3335)" class="st2 st3">Lift Lobby</text>
	<text transform="matrix(1 0 0 1 106.3335 206.3335)" class="st2 st3">MR Corridor</text>
	<text transform="matrix(1 0 0 1 176 133)" class="st2 st3">Outside Academic Office 1</text>
	<text transform="matrix(1 0 0 1 469.667 132.6665)" class="st2 st3">Outside Academic Office 2</text>
</g>
</svg>
