<?xml version="1.0" encoding="utf-8"?>
<!-- Generator: Adobe Illustrator 21.1.0, SVG Export Plug-In . SVG Version: 6.00 Build 0)  -->
<svg version="1.1" xmlns="http://www.w3.org/2000/svg" xmlns:xlink="http://www.w3.org/1999/xlink" x="0px" y="0px"
	 viewBox="0 0 800 600" style="enable-background:new 0 0 800 600;" xml:space="preserve">
<style type="text/css">
	.st0{fill:#CCCCCC;}
	.st1{fill:#FFFFFF;stroke:#000000;stroke-miterlimit:10;}
	.st2{font-family:'MyriadPro-Regular';}
	.st3{font-size:12px;}
</style>
<g id="Layer_1">
	<path class="st0" d="M797.6,120.2c-15.6,0-31.3,0-46.9,0c-3.9,0-3.9,0-3.9-4.6c0-36.8,0-73.6,0-110.4c0-1-0.1-2,0-3
		c0.1-1.7-0.6-2.3-1.9-2.2c-0.8,0.1-1.5,0-2.3,0c-135,0-270,0-405,0l-309,0c-3.1,0-3.1,0-3.1,3.7c0,9.6,0,19.3,0,28.9
		c0,27.3,0,54.7,0,82c0,3.7,0,3.7-2.9,3.7c-7.5,0-15,0-22.5,0c0,0.2,0,0.4,0,0.6c0.1,0.3,0.3,0.6,0.4,1c7.1,21.7,14.1,43.4,21.2,65
		c0.6,2-0.1,2.4-1.4,2.7c-3.9,1-7.7,2.2-11.5,3.1c-2.2,0.5-2.5,1.4-1.7,3.9c11.8,38.4,23.5,76.9,35.3,115.4c1.3,4.1,2,8.2,1.9,12.6
		c-0.2,5.7,0.1,11.4-0.1,17.1c-0.1,2.9,0.8,3.5,3,3.5c8.3-0.1,16.7,0,25-0.1c2.4,0,3,0.9,2.9,3.6c-0.2,7.4-0.3,14.9-0.2,22.3
		c0,2.7-0.7,3.4-2.9,3.4c-12.3-0.1-24.6-0.1-36.9,0c-4.9,0-11,5.1-12.8,10.6C15.5,403.4,8.7,423.9,2,444.5c-1.1,3.3-1.1,3.3,1.8,3.3
		c18.7,0,37.3,0,56,0c2.1,0,2.8,0.7,2.8,3.3c-0.1,9.4,0.9,18.4,4.4,27c2.4,5.8,4.9,11.6,8.1,16.8c11.3,18.3,25,33.6,39.9,47.5
		c27.6,25.8,59,42.2,92,54.6c10.6,4,21.4,3.8,32.1,1.2c7.2-1.7,14.4-3.9,21.7-4.7c2.7-0.3,4.7-1.4,6.6-3.5c3.8-4,7.7-7.7,11.5-11.6
		c1.2-1.2,2.5-2,4-2.4c5.1-1.2,10.1-2.8,15.1-3.8c4.3-0.8,7.9-2.8,10.7-6.9c1.4-1.9,3.1-3.5,4.7-5.2c1.5,0,2.2-0.9,2.3-2.6
		c2-2.9,4.4-4.7,7.5-5.7c5.4-1.6,10.6-3.7,16-5.5c1.5-0.5,2.7-1.4,3.8-2.8c3.1-4.3,6.3-8.4,9.5-12.6c0.8-1,1.6-1.8,2.8-2.2
		c6.4-2.6,12.8-5.3,19.2-8c1.4-0.6,2.4-1.5,3.2-2.9c3-4.8,6.2-9.5,9.2-14.3c1-1.6,2.2-2.6,3.8-3.3c5.7-2.6,11.3-5.3,17-7.9
		c1.5-0.7,2.5-1.8,3.4-3.4c2.3-4.7,4.7-9.2,7-13.8c0.7-1.4,1.6-2.4,2.8-3.1c5.8-3.4,11.6-6.8,17.4-10.2c1.4-0.8,2.3-1.8,3-3.5
		c1.9-4.5,4-8.9,5.9-13.4c0.7-1.6,1.6-2.8,2.9-3.7c5.1-3.5,10.2-7.2,15.4-10.7c2-1.4,3.4-3.1,4.2-5.7c1.6-5.2,3.7-10,6.7-14.3
		c2.6-3.7,4.4-8.2,5.7-12.8c3.3-11.6,1.5-22.1-5.3-31.2c-3.3-4.4-7.2-7.9-11.5-10.7c-23.2-15.1-48.6-20.9-74.4-24
		c-6.2-0.7-12.4-0.8-18.6-1.1c-1.5-0.1-2-0.8-1.9-2.5c0.2-3,0.4-6.1,0.3-9.1c0-2.6,0.8-3.4,2.9-3.4c11.8,0.1,23.5,0,35.3,0.1
		c2,0,2.6-0.8,2.6-3.2c-0.1-6.7,0-13.4,0-20.1c0-12.2,0-24.4,0-36.6c0-3.6,0-3.6-3.1-3.6c-1.4,0-2.7,0-4.1,0
		c-10.4,0-20.8-0.1-31.2,0c-2,0-2.7-0.8-2.6-3.2c0.1-2.5,0.1-5,0-7.4c-0.1-2.3,0.7-3,2.5-3c5.5,0.1,11.1,0,16.6,0
		c90.5,0,181-0.1,271.5-0.1c3.1,0,3.1,0,3.2-3.7c0-9.5,0.2-19.1,0.1-28.6c0-2.8,0.7-3.5,3-3.5c13.1,0.1,26.2-0.1,39.4,0
		c4,0,7.6-1.3,11.1-3.4c2.6-1.6,5-3.5,7.2-5.7c24.5-23.7,49.1-47.4,73.6-71.1c0.5-0.5,1.2-0.8,1.3-1.8
		C799.2,119.9,798.4,120.2,797.6,120.2z"/>
</g>
<g id="Layer_2">
	<polygon id="1010500008" class="st1" points="232.6,235.3 232.6,264.4 187.4,264.4 187.4,246 173.3,246 173.3,181.5 143.1,181.5 143.1,206.1 
		129.1,206.1 129.1,376.5 143.1,376.5 143.1,410.3 173.3,410.3 173.3,302.8 187.4,302.8 232.6,302.8 265.7,302.8 265.7,264.4 
		265.7,235.3 	"/>
	<polygon id="1010500002" class="st1" points="289.8,236.8 289.8,264.4 265.7,264.4 265.7,302.8 289.8,302.8 289.8,330.5 369.2,330.5 369.2,236.8 	
		"/>
	<polygon id="1010500021" class="st1" points="419.5,103.2 352.1,103.2 352.1,46.4 322,46.4 322,103.2 253.2,103.2 253.2,45.6 222,45.6 222,103.2 
		144.1,103.2 134.1,103.2 134.1,160 144.1,160 144.1,181.5 173.3,181.5 173.3,149.3 322,149.3 322,181.5 352.1,181.5 352.1,149.3 
		419.5,149.3 	"/>
	<polygon id="1010500037" class="st1" points="690.8,74 690.8,46.4 640.5,46.4 613.4,46.4 613.4,103.2 546.1,103.2 546.1,46.4 516.9,46.4 
		516.9,103.2 446.6,103.2 446.6,46.4 419.5,46.4 419.5,170.8 446.6,170.8 446.6,149.3 516.9,149.3 516.9,195.3 546.1,195.3 
		546.1,149.3 613.4,149.3 613.4,192.3 638.5,192.3 638.5,196.9 662.6,196.9 662.6,126.2 640.5,126.2 640.5,74 	"/>
	<text transform="matrix(1 0 0 1 219 130.3335)" class="st2 st3">Outside Deans Office</text>
	<text transform="matrix(1 0 0 1 497.667 130.6665)" class="st2 st3">Academic Office</text>
	<text transform="matrix(1 0 0 1 298.6665 286.3335)" class="st2 st3">Lift Lobby</text>
	<text transform="matrix(1 0 0 1 156.3335 286.6665)" class="st2 st3">Study Area 1</text>
</g>
</svg>
